control3min_grf.mot
version=1
nRows=27
nColumns 19
inDegrees=yes
endheader
time	1_ground_force_vx	1_ground_force_vy	1_ground_force_vz	1_ground_force_px	1_ground_force_py	1_ground_force_pz	1_ground_torque_x	1_ground_torque_y	1_ground_torque_z	2_ground_force_vx	2_ground_force_vy	2_ground_force_vz	2_ground_force_px	2_ground_force_py	2_ground_force_pz	2_ground_torque_x	2_ground_torque_y	2_ground_torque_z
            3.751500	           -0.642182	            2.703665	            0.059043	           -0.233013	            0.005581	           -0.255695	            0.127829	           -0.250082	            0.027542	           -1.213967	           12.855190	            8.728191	           -0.170728	            0.005976	           -0.728083	           -0.010329	            0.109381	            0.074265
            3.752000	            0.091878	            1.441357	            0.189380	           -0.233013	            0.005581	           -0.255695	            0.160089	           -0.101356	           -0.053368	           -0.742206	           11.936642	            8.583922	           -0.167829	            0.005988	           -0.728685	           -0.001775	            0.028540	            0.020524
            3.752500	            0.688601	            1.620361	            0.509665	           -0.233013	            0.005581	           -0.255695	            0.202695	           -0.008709	           -0.008874	           -0.924289	           10.462779	            8.578746	           -0.167478	            0.006013	           -0.735248	            0.000158	           -0.001787	           -0.001465
            3.753000	            1.100990	            2.702035	            0.513279	           -0.233013	            0.005581	           -0.255695	            0.220795	            0.102406	            0.009112	           -0.406364	            9.728716	            8.388186	           -0.232311	            0.006130	           -0.833667	           -0.992904	           -0.677157	            0.676636
            3.753500	            0.687687	            2.883401	            0.239940	           -0.233013	            0.005581	           -0.255695	            0.194930	            0.028093	            0.028855	           -0.591311	            8.993120	            7.916356	           -0.232311	            0.006130	           -0.833667	           -0.786323	           -0.675940	            0.544597
            3.754000	            0.229146	            1.622042	            0.098100	           -0.233013	            0.005581	           -0.255695	            0.201499	           -0.156829	           -0.029053	           -0.962663	            8.070021	            8.194799	           -0.232311	            0.006130	           -0.833667	           -0.711464	           -0.590796	            0.601419
            3.754500	           -0.458870	            0.541298	           -0.134111	           -0.233013	            0.005581	           -0.255695	            0.155932	           -0.287134	            0.072806	           -1.473586	            6.780963	            7.674210	           -0.232311	            0.006130	           -0.833667	           -0.674054	           -0.552648	            0.544987
            3.755000	           -0.367235	            1.442448	           -0.084618	           -0.233013	            0.005581	           -0.255695	            0.209481	           -0.240460	           -0.017240	           -1.329816	            5.861565	            7.436224	           -0.232311	            0.006130	           -0.833667	           -0.655283	           -0.570813	            0.356410
            3.755500	           -0.321179	            0.901463	           -0.041195	           -0.233013	            0.005581	           -0.255695	            0.207710	           -0.083058	           -0.070981	           -1.655792	            5.308104	            7.387464	           -0.232311	            0.006130	           -0.833667	           -0.467150	           -0.636640	            0.450345
            3.756000	            0.458703	            1.621497	            0.235098	           -0.233013	            0.005581	           -0.255695	            0.177077	            0.073959	            0.075761	           -1.465254	            4.389545	            6.961746	           -0.232311	            0.006130	           -0.833667	           -0.504601	           -0.674452	            0.412526
            3.756500	            1.009828	            1.079233	            0.598262	           -0.233013	            0.005581	           -0.255695	            0.199243	            0.083714	            0.042830	           -1.089167	            4.022936	            6.866417	           -0.232311	            0.006130	           -0.833667	           -0.316798	           -0.664187	            0.374779
            3.757000	            1.146998	            1.800715	            0.509300	           -0.233013	            0.005581	           -0.255695	            0.202673	            0.000665	            0.029506	           -1.366299	            2.917199	            6.815666	           -0.232311	            0.006130	           -0.833667	           -0.279148	           -0.701391	            0.242677
            3.757500	            0.596280	            1.981858	            0.282159	           -0.233013	            0.005581	           -0.255695	            0.231183	           -0.230837	            0.042575	           -1.317805	            2.367768	            6.015897	           -0.232311	            0.006130	           -0.833667	           -0.260772	           -0.587891	            0.243073
            3.758000	           -0.000003	            1.261467	            0.097123	           -0.233013	            0.005581	           -0.255695	            0.089273	           -0.221982	            0.036378	           -1.881333	            2.734035	            6.017450	           -0.232311	            0.006130	           -0.833667	           -0.242352	           -0.502278	            0.111418
            3.758500	           -0.184058	            1.262611	           -0.177558	           -0.233013	            0.005581	           -0.255695	            0.100845	           -0.221832	           -0.027863	           -1.783351	            1.448348	            5.168105	           -0.232311	            0.006130	           -0.833667	           -0.242319	           -0.502547	            0.186818
            3.759000	           -0.550834	            1.442806	           -0.175875	           -0.233013	            0.005581	           -0.255695	            0.100712	           -0.083430	           -0.024116	           -1.265529	            0.715122	            4.742905	           -0.232311	            0.006130	           -0.833667	           -0.223371	           -0.549675	            0.167791
            3.759500	            0.044717	            1.804042	           -0.313376	           -0.233013	            0.005581	           -0.255695	            0.162840	            0.055260	            0.058118	           -1.359681	            0.718465	            3.710526	           -0.232311	            0.006130	           -0.833667	           -0.185953	           -0.511595	            0.130210
            3.760000	            0.504300	            2.342765	            0.192221	           -0.233013	            0.005581	           -0.255695	            0.028255	            0.083435	            0.021706	           -0.889538	            0.170557	            2.910578	           -0.232311	            0.006130	           -0.833667	           -0.110854	           -0.501803	            0.111362
            3.760500	            0.780125	            1.260241	            0.416180	           -0.233013	            0.005581	           -0.255695	            0.225683	           -0.101180	            0.013393	           -0.328374	            0.359748	            2.066290	           -0.232311	            0.006130	           -0.833667	           -0.149235	           -0.284325	            0.055603
            3.761000	            0.917783	            1.800671	            0.509869	           -0.233013	            0.005581	           -0.255695	            0.183929	           -0.285990	            0.018550	            0.374484	            0.182656	            0.798275	           -0.232311	            0.006130	           -0.833667	           -0.262543	           -0.123902	            0.018524
            3.761500	            0.504741	            1.801378	            0.327469	           -0.233013	            0.005581	           -0.255695	            0.191511	           -0.239645	           -0.074056	            0.512087	            0.922100	            0.143850	           -0.232311	            0.006130	           -0.833667	           -0.206851	            0.046854	           -0.093994
            3.762000	            0.229422	            1.981984	            0.237213	           -0.233013	            0.005581	           -0.255695	            0.233122	           -0.101680	            0.046285	            0.374011	            0.186506	           -0.281071	           -0.232311	            0.006130	           -0.833667	           -0.187851	           -0.019046	           -0.150789
            3.762500	           -0.458529	            0.540708	            0.003457	           -0.233013	            0.005581	           -0.255695	            0.243821	            0.036488	            0.055177	            0.045062	            0.550940	            0.471232	           -0.232311	            0.006130	           -0.833667	           -0.243647	           -0.152259	            0.037265
            3.763000	           -0.321862	            0.902643	           -0.316330	           -0.233013	            0.005581	           -0.255695	            0.238500	            0.138216	            0.061478	           -0.000377	            0.181805	            0.657650	           -0.232311	            0.006130	           -0.833667	           -0.186856	           -0.274874	            0.017952
            3.763500	           -0.046040	            1.081585	            0.004752	           -0.233013	            0.005581	           -0.255695	            0.187061	            0.036908	            0.016499	           -0.094474	            0.363439	            1.268413	           -0.232311	            0.006130	           -0.833667	           -0.111679	           -0.293239	           -0.057548
            3.764000	            0.183058	            2.343293	            0.055449	           -0.233013	            0.005581	           -0.255695	            0.296883	           -0.101453	           -0.012235	           -0.048371	            0.548426	            1.081337	           -0.232311	            0.006130	           -0.833667	           -0.187212	           -0.189396	           -0.094846
            3.764500	            0.734249	            1.440498	            0.417066	           -0.233013	            0.005581	           -0.255695	            0.169273	           -0.249106	            0.010938	            0.515698	           -0.000985	            0.797559	           -0.232311	            0.006130	           -0.833667	           -0.206552	           -0.038154	           -0.113148
